Dia 2 do Tributo... Mais completo que o dia 01... algumas músicas a mais!


Format                           : MPEG-4
Format profile                   : Base Media
Codec ID                         : isom
File size                        : 2.52 GiB
Duration                         : 2h 31mn
Overall bit rate                 : 2 388 Kbps
Writing application              : Lavf53.13.0

Video
ID                               : 1
Format                           : AVC
Format/Info                      : Advanced Video Codec
Format profile                   : High@L4.1
Format settings, CABAC           : Yes
Format settings, ReFrames        : 4 frames
Codec ID                         : avc1
Codec ID/Info                    : Advanced Video Coding
Duration                         : 2h 31mn
Bit rate mode                    : Variable
Bit rate                         : 2 255 Kbps
Width                            : 1 280 pixels
Height                           : 720 pixels
Display aspect ratio             : 16:9
Frame rate mode                  : Constant
Frame rate                       : 29.970 fps
Color space                      : YUV
Chroma subsampling               : 4:2:0
Bit depth                        : 8 bits
Scan type                        : Progressive
Bits/(Pixel*Frame)               : 0.082
Stream size                      : 2.38 GiB (94%)
Writing library                  : x264 core 118 r2085 8a62835

Audio
ID                               : 2
Format                           : AAC
Format/Info                      : Advanced Audio Codec
Format profile                   : LC
Codec ID                         : 40
Duration                         : 2h 31mn
Bit rate mode                    : Variable
Bit rate                         : 127 Kbps
Maximum bit rate                 : 128 Kbps
Channel(s)                       : 2 channels
Channel positions                : Front: L R
Sampling rate                    : 44.1 KHz
Compression mode                 : Lossy
Stream size                      : 138 MiB (5%)

